<?xml version="1.0" encoding="UTF-8" standalone="no"?>
<!DOCTYPE svg PUBLIC "-//W3C//DTD SVG 1.1//EN"
 "http://www.w3.org/Graphics/SVG/1.1/DTD/svg11.dtd">
<!-- Generated by graphviz version 5.0.0 (20220707.1540)
 -->
<!-- Title: dependencies Pages: 1 -->
<svg width="893pt" height="247pt"
 viewBox="0.00 0.00 893.00 246.80" xmlns="http://www.w3.org/2000/svg" xmlns:xlink="http://www.w3.org/1999/xlink">
<g id="graph0" class="graph" transform="scale(1 1) rotate(0) translate(4 242.8)">
<title>dependencies</title>
<polygon fill="white" stroke="transparent" points="-4,4 -4,-242.8 889,-242.8 889,4 -4,4"/>
<text text-anchor="middle" x="442.5" y="-8.2" font-family="sans-serif" font-size="14.00">dependencies</text>
<g id="clust1" class="cluster">
<title>cluster_AppModule</title>
<polygon fill="none" stroke="black" stroke-dasharray="1,5" points="8,-32.8 8,-230.8 877,-230.8 877,-32.8 8,-32.8"/>
</g>
<g id="clust2" class="cluster">
<title>cluster_AppModule_declarations</title>
<polygon fill="none" stroke="black" points="340,-40.8 340,-92.8 869,-92.8 869,-40.8 340,-40.8"/>
</g>
<g id="clust7" class="cluster">
<title>cluster_AppModule_imports</title>
<polygon fill="none" stroke="black" points="188,-40.8 188,-92.8 332,-92.8 332,-40.8 188,-40.8"/>
</g>
<g id="clust9" class="cluster">
<title>cluster_AppModule_bootstrap</title>
<polygon fill="none" stroke="black" points="416,-170.8 416,-222.8 540,-222.8 540,-170.8 416,-170.8"/>
</g>
<g id="clust10" class="cluster">
<title>cluster_AppModule_providers</title>
<polygon fill="none" stroke="black" points="16,-40.8 16,-92.8 180,-92.8 180,-40.8 16,-40.8"/>
</g>
<!-- AppComponent -->
<g id="node1" class="node">
<title>AppComponent</title>
<polygon fill="#ffffb3" stroke="black" points="860.94,-84.8 755.06,-84.8 755.06,-48.8 860.94,-48.8 860.94,-84.8"/>
<text text-anchor="middle" x="808" y="-62.6" font-family="Times,serif" font-size="14.00">AppComponent</text>
</g>
<!-- AppModule -->
<g id="node5" class="node">
<title>AppModule</title>
<polygon fill="#8dd3c7" stroke="black" points="519.66,-149.8 516.66,-153.8 495.66,-153.8 492.66,-149.8 436.34,-149.8 436.34,-113.8 519.66,-113.8 519.66,-149.8"/>
<text text-anchor="middle" x="478" y="-127.6" font-family="Times,serif" font-size="14.00">AppModule</text>
</g>
<!-- AppComponent&#45;&gt;AppModule -->
<g id="edge1" class="edge">
<title>AppComponent&#45;&gt;AppModule</title>
<path fill="none" stroke="black" d="M808,-85.08C808,-106.12 808,-137.8 808,-137.8 808,-137.8 529.79,-137.8 529.79,-137.8"/>
<polygon fill="black" stroke="black" points="529.79,-134.3 519.79,-137.8 529.79,-141.3 529.79,-134.3"/>
</g>
<!-- HomeComponent -->
<g id="node2" class="node">
<title>HomeComponent</title>
<polygon fill="#ffffb3" stroke="black" points="737.55,-84.8 622.45,-84.8 622.45,-48.8 737.55,-48.8 737.55,-84.8"/>
<text text-anchor="middle" x="680" y="-62.6" font-family="Times,serif" font-size="14.00">HomeComponent</text>
</g>
<!-- HomeComponent&#45;&gt;AppModule -->
<g id="edge2" class="edge">
<title>HomeComponent&#45;&gt;AppModule</title>
<path fill="none" stroke="black" d="M680,-84.82C680,-102.17 680,-125.8 680,-125.8 680,-125.8 529.85,-125.8 529.85,-125.8"/>
<polygon fill="black" stroke="black" points="529.85,-122.3 519.85,-125.8 529.85,-129.3 529.85,-122.3"/>
</g>
<!-- LoginComponent -->
<g id="node3" class="node">
<title>LoginComponent</title>
<polygon fill="#ffffb3" stroke="black" points="604.27,-84.8 489.73,-84.8 489.73,-48.8 604.27,-48.8 604.27,-84.8"/>
<text text-anchor="middle" x="547" y="-62.6" font-family="Times,serif" font-size="14.00">LoginComponent</text>
</g>
<!-- LoginComponent&#45;&gt;AppModule -->
<g id="edge3" class="edge">
<title>LoginComponent&#45;&gt;AppModule</title>
<path fill="none" stroke="black" d="M504.72,-84.91C504.72,-84.91 504.72,-103.79 504.72,-103.79"/>
<polygon fill="black" stroke="black" points="501.22,-103.79 504.72,-113.79 508.22,-103.79 501.22,-103.79"/>
</g>
<!-- SignUpComponent -->
<g id="node4" class="node">
<title>SignUpComponent</title>
<polygon fill="#ffffb3" stroke="black" points="472.12,-84.8 347.88,-84.8 347.88,-48.8 472.12,-48.8 472.12,-84.8"/>
<text text-anchor="middle" x="410" y="-62.6" font-family="Times,serif" font-size="14.00">SignUpComponent</text>
</g>
<!-- SignUpComponent&#45;&gt;AppModule -->
<g id="edge4" class="edge">
<title>SignUpComponent&#45;&gt;AppModule</title>
<path fill="none" stroke="black" d="M454.11,-84.91C454.11,-84.91 454.11,-103.79 454.11,-103.79"/>
<polygon fill="black" stroke="black" points="450.61,-103.79 454.11,-113.79 457.61,-103.79 450.61,-103.79"/>
</g>
<!-- AppComponent  -->
<g id="node7" class="node">
<title>AppComponent </title>
<polygon fill="#80b1d3" stroke="black" points="532.44,-214.8 423.56,-214.8 423.56,-178.8 532.44,-178.8 532.44,-214.8"/>
<text text-anchor="middle" x="478" y="-192.6" font-family="Times,serif" font-size="14.00">AppComponent </text>
</g>
<!-- AppModule&#45;&gt;AppComponent  -->
<g id="edge6" class="edge">
<title>AppModule&#45;&gt;AppComponent </title>
<path fill="none" stroke="black" stroke-dasharray="1,5" d="M478,-149.91C478,-149.91 478,-168.79 478,-168.79"/>
<polygon fill="black" stroke="black" points="474.5,-168.79 478,-178.79 481.5,-168.79 474.5,-168.79"/>
</g>
<!-- AppRoutingModule -->
<g id="node6" class="node">
<title>AppRoutingModule</title>
<polygon fill="#8dd3c7" stroke="black" points="324.28,-84.8 321.28,-88.8 300.28,-88.8 297.28,-84.8 195.72,-84.8 195.72,-48.8 324.28,-48.8 324.28,-84.8"/>
<text text-anchor="middle" x="260" y="-62.6" font-family="Times,serif" font-size="14.00">AppRoutingModule</text>
</g>
<!-- AppRoutingModule&#45;&gt;AppModule -->
<g id="edge5" class="edge">
<title>AppRoutingModule&#45;&gt;AppModule</title>
<path fill="none" stroke="black" d="M260,-84.82C260,-102.17 260,-125.8 260,-125.8 260,-125.8 426.23,-125.8 426.23,-125.8"/>
<polygon fill="black" stroke="black" points="426.23,-129.3 436.23,-125.8 426.23,-122.3 426.23,-129.3"/>
</g>
<!-- ErrorInterceptor -->
<g id="node8" class="node">
<title>ErrorInterceptor</title>
<ellipse fill="#fdb462" stroke="black" cx="98" cy="-66.8" rx="73.54" ry="18"/>
<text text-anchor="middle" x="98" y="-62.6" font-family="Times,serif" font-size="14.00">ErrorInterceptor</text>
</g>
<!-- ErrorInterceptor&#45;&gt;AppModule -->
<g id="edge7" class="edge">
<title>ErrorInterceptor&#45;&gt;AppModule</title>
<path fill="none" stroke="black" d="M98,-85.08C98,-106.12 98,-137.8 98,-137.8 98,-137.8 426.25,-137.8 426.25,-137.8"/>
<polygon fill="black" stroke="black" points="426.25,-141.3 436.25,-137.8 426.25,-134.3 426.25,-141.3"/>
</g>
</g>
</svg>
